# xmcd
#
# Track frame offsets: 
#        150
#        18182
#        34397
#
# Disc length: 1085 seconds
#
# Revision: 0
# Processed by: cddbd v1.5.2PL0 Copyright (c) Steve Scherf et al.
# Submitted via: ExactAudioCopy v0.99pb4
#
DISCID=1b043b03
DTITLE=Ronan Keating_LeAnne Rimes - Last Thing On My Mind
DYEAR=2004
DGENRE=Country
TTITLE0=Last Thing On My Mind
TTITLE1=Last Thing On My Mind (Metro Mix)
TTITLE2=Last Thing On My Mind (Mo Monkey Mix)
EXTD=
EXTT0=
EXTT1=
EXTT2=
PLAYORDER=
